<svg data-v-0dd9719b="" version="1.0" xmlns="http://www.w3.org/2000/svg" xmlns:xlink="http://www.w3.org/1999/xlink" width="100%" height="100%" viewBox="0 0 340.000000 250.000000" preserveAspectRatio="xMidYMid meet" color-interpolation-filters="sRGB" style="margin: auto;"> <rect data-v-0dd9719b="" x="0" y="0" width="100%" height="100%" fill="#ffffff" fill-opacity="1" class="background"></rect> <rect data-v-0dd9719b="" x="0" y="0" width="100%" height="100%" fill="url(#watermark)" fill-opacity="1" class="watermarklayer"></rect> <g data-v-0dd9719b="" class="iconmbgsvg" transform="translate(94.07250237464905,45.61201477050781)"><g fill="#C770F0" hollow-target="textRect"><g transform="translate(14.354999542236328,0)" mask="url(#69929c6d-6f30-46a1-bc59-dfeda5577245)"><g><rect fill="#C770F0" fill-opacity="0" stroke-width="2" x="0" y="0" width="137.5" height="158.77598152424943" class="image-rect"></rect> <svg x="0" y="0" width="137.5" height="158.77598152424943" filtersec="colorsb1800167100" class="image-svg-svg primary" style="overflow: visible;"><svg xmlns="http://www.w3.org/2000/svg" viewBox="0 0 166.4199981689453 192.17001342773438"><path fill="#215ea9" d="M33.16 112.21V67.19l39-22.51-11.06-6.39-38.99 22.52v45.02l11.05 6.38z"></path><path fill="#bd2785" d="M83.21 192.17l83.21-48.04v-12.77L83.21 179.4 0 131.36v12.77l83.21 48.04z"></path><path fill="#803088" d="M0 118.59l83.21 48.05 83.21-48.05v-12.76l-83.21 48.04L0 105.83v12.76z"></path><path fill="#0a74ba" d="M11.05 99.45V54.42L61.1 25.53l72.16 41.66v45.02l11.05-6.38V60.81L61.1 12.77 0 48.04v45.02l11.05 6.39z"></path><path fill="#1698d5" d="M155.37 54.42v45.03l11.05-6.38V48.04L83.21 0 72.16 6.38l83.21 48.04z"></path><path fill="#514d9a" d="M44.46 73.71v44.75l38.75 22.37 38.75-22.37V73.71L83.21 51.34 44.46 73.71z"></path></svg></svg> <!----></g></g> <g transform="translate(0,54.76298522949219)"><g data-gra="path-name" fill-rule="" class="tp-name"><g transform="scale(1)"><g><path d="M43.57 0L37.42 0Q34.35 0 32.85-0.9 31.35-1.8 30.67-3.15L30.67-3.15Q26.77-11.17 23.36-18.52 19.95-25.88 16.43-33.38L16.43-33.38Q16.5-25.27 16.65-17.25 16.8-9.22 16.95-1.13L16.95-1.13Q16.95 0 15.75 0L15.75 0 11.63 0Q7.35 0 5.59-1.69 3.82-3.38 3.82-6.67L3.82-6.67Q3.82-7.57 3.94-9.71 4.05-11.85 4.27-14.77 4.5-17.7 4.76-21.19 5.02-24.68 5.33-28.27L5.33-28.27Q5.77-33.98 6.08-37.73 6.38-41.48 6.56-44.06 6.75-46.65 6.83-48.49 6.9-50.32 6.97-52.13L6.97-52.13Q6.97-53.25 8.17-53.25L8.17-53.25 14.17-53.25Q16.65-53.25 18.22-52.69 19.8-52.13 20.81-51.15 21.82-50.17 22.43-48.94 23.02-47.7 23.55-46.35L23.55-46.35Q25.35-41.7 26.74-38.32 28.13-34.95 29.17-32.4 30.22-29.85 31.01-27.97 31.8-26.1 32.48-24.52 33.15-22.95 33.82-21.49 34.5-20.02 35.25-18.3L35.25-18.3Q35.25-22.72 35.21-27.41 35.17-32.1 35.14-36.56 35.1-41.02 35.06-45.15 35.02-49.27 35.02-52.57L35.02-52.57Q35.02-53.25 36.3-53.25L36.3-53.25 40.42-53.25Q42.9-53.25 44.36-52.76 45.82-52.27 46.65-51.34 47.48-50.4 47.74-49.05 48-47.7 48-45.98L48-45.98Q48-44.1 47.77-40.24 47.55-36.38 47.25-31.57 46.95-26.77 46.57-21.64 46.2-16.5 45.86-12.15 45.52-7.8 45.26-4.76 45-1.72 44.92-1.2L44.92-1.2Q44.92-0.6 44.51-0.3 44.1 0 43.57 0L43.57 0ZM102.97-39.98L102.97-39.98Q102.38-38.17 101.44-35.29 100.5-32.4 99.38-28.95 98.25-25.5 97.05-21.64 95.85-17.77 94.61-14.1 93.38-10.42 92.17-7.09 90.97-3.75 90-1.27L90-1.27Q89.7-0.67 88.76-0.34 87.83 0 85.8 0L85.8 0Q84.53 0 83.17-0.15 81.83-0.3 80.66-0.75 79.5-1.2 78.64-1.95 77.78-2.7 77.33-3.82L77.33-3.82Q76.2-7.65 75.19-12.34 74.17-17.02 73.2-21.9 72.22-26.77 71.29-31.46 70.35-36.15 69.38-39.98L69.38-39.98Q69.38-38.92 69.3-36.38 69.22-33.82 69.15-30.45 69.08-27.07 68.96-23.18 68.85-19.27 68.78-15.56 68.7-11.85 68.63-8.66 68.55-5.47 68.55-3.45L68.55-3.45Q68.55-1.2 68.29-0.6 68.03 0 67.35 0L67.35 0 63.23 0Q58.95 0 57.19-1.69 55.43-3.38 55.43-6.67L55.43-6.67Q55.43-7.57 55.54-9.71 55.65-11.85 55.88-14.77 56.1-17.7 56.36-21.19 56.63-24.68 56.93-28.27L56.93-28.27Q57.3-33.15 57.56-36.41 57.83-39.67 57.98-41.85 58.13-44.02 58.24-45.38 58.35-46.73 58.39-47.77 58.43-48.82 58.46-49.76 58.5-50.7 58.5-52.13L58.5-52.13Q58.5-52.73 58.95-52.99 59.4-53.25 59.77-53.25L59.77-53.25 70.28-53.25Q73.2-53.25 75.08-52.31 76.95-51.38 78.15-49.42 79.35-47.48 80.1-44.36 80.85-41.25 81.49-36.98 82.13-32.7 82.91-27.11 83.7-21.52 84.97-14.55L84.97-14.55Q86.17-19.2 87-22.27 87.83-25.35 88.39-27.41 88.95-29.47 89.33-30.82 89.7-32.17 90-33.34 90.3-34.5 90.67-35.85 91.05-37.2 91.58-39.23 92.1-41.25 92.89-44.29 93.67-47.32 94.88-51.98L94.88-51.98Q95.03-52.42 95.4-52.84 95.78-53.25 96.75-53.25L96.75-53.25 108.45-53.25Q110.85-53.25 112.31-52.76 113.78-52.27 114.6-51.38 115.42-50.48 115.72-49.16 116.03-47.85 116.03-46.13L116.03-46.13Q116.03-44.4 115.84-40.54 115.65-36.67 115.31-31.84 114.97-27 114.64-21.82 114.3-16.65 113.96-12.22 113.63-7.8 113.4-4.72 113.17-1.65 113.1-1.13L113.1-1.13Q113.03-0.53 112.8-0.26 112.57 0 111.9 0L111.9 0 107.78 0Q103.5 0 101.74-1.69 99.97-3.38 99.97-6.08L99.97-6.08Q99.97-6.9 100.16-9.07 100.35-11.25 100.65-14.17 100.95-17.1 101.33-20.59 101.7-24.07 102-27.52 102.3-30.97 102.56-34.24 102.83-37.5 102.97-39.98Z" transform="translate(-3.819999933242798, 53.25)"></path></g> <!----> <!----> <!----> <!----> <!----> <!----> <!----></g></g> <!----></g></g></g><mask id="69929c6d-6f30-46a1-bc59-dfeda5577245"><g fill="white"><g><rect fill-opacity="1" stroke-width="2" x="0" y="0" width="137.5" height="158.77598152424943" class="image-rect"></rect> <svg x="0" y="0" width="137.5" height="158.77598152424943" filtersec="colorsb1800167100" class="image-svg-svg primary" style="overflow: visible;"><svg xmlns="http://www.w3.org/2000/svg" viewBox="0 0 166.4199981689453 192.17001342773438"><path d="M33.16 112.21V67.19l39-22.51-11.06-6.39-38.99 22.52v45.02l11.05 6.38z"></path><path d="M83.21 192.17l83.21-48.04v-12.77L83.21 179.4 0 131.36v12.77l83.21 48.04z"></path><path d="M0 118.59l83.21 48.05 83.21-48.05v-12.76l-83.21 48.04L0 105.83v12.76z"></path><path d="M11.05 99.45V54.42L61.1 25.53l72.16 41.66v45.02l11.05-6.38V60.81L61.1 12.77 0 48.04v45.02l11.05 6.39z"></path><path d="M155.37 54.42v45.03l11.05-6.38V48.04L83.21 0 72.16 6.38l83.21 48.04z"></path><path d="M44.46 73.71v44.75l38.75 22.37 38.75-22.37V73.71L83.21 51.34 44.46 73.71z"></path></svg></svg> </g></g> <g transform="translate(-14.354999542236328,54.76298522949219)"><rect fill="black" fill-opacity="1" x="-3.5" y="-3.5" width="119.20999908447266" height="60.25"></rect><rect fill="black" fill-opacity="1" x="-3.5" y="-3.5"></rect></g><g transform="translate(-14.354999542236328,54.76298522949219)" fill="black"><g data-gra="path-name" fill-rule="" class="tp-name"><g transform="scale(1)"><g><path d="M43.57 0L37.42 0Q34.35 0 32.85-0.9 31.35-1.8 30.67-3.15L30.67-3.15Q26.77-11.17 23.36-18.52 19.95-25.88 16.43-33.38L16.43-33.38Q16.5-25.27 16.65-17.25 16.8-9.22 16.95-1.13L16.95-1.13Q16.95 0 15.75 0L15.75 0 11.63 0Q7.35 0 5.59-1.69 3.82-3.38 3.82-6.67L3.82-6.67Q3.82-7.57 3.94-9.71 4.05-11.85 4.27-14.77 4.5-17.7 4.76-21.19 5.02-24.68 5.33-28.27L5.33-28.27Q5.77-33.98 6.08-37.73 6.38-41.48 6.56-44.06 6.75-46.65 6.83-48.49 6.9-50.32 6.97-52.13L6.97-52.13Q6.97-53.25 8.17-53.25L8.17-53.25 14.17-53.25Q16.65-53.25 18.22-52.69 19.8-52.13 20.81-51.15 21.82-50.17 22.43-48.94 23.02-47.7 23.55-46.35L23.55-46.35Q25.35-41.7 26.74-38.32 28.13-34.95 29.17-32.4 30.22-29.85 31.01-27.97 31.8-26.1 32.48-24.52 33.15-22.95 33.82-21.49 34.5-20.02 35.25-18.3L35.25-18.3Q35.25-22.72 35.21-27.41 35.17-32.1 35.14-36.56 35.1-41.02 35.06-45.15 35.02-49.27 35.02-52.57L35.02-52.57Q35.02-53.25 36.3-53.25L36.3-53.25 40.42-53.25Q42.9-53.25 44.36-52.76 45.82-52.27 46.65-51.34 47.48-50.4 47.74-49.05 48-47.7 48-45.98L48-45.98Q48-44.1 47.77-40.24 47.55-36.38 47.25-31.57 46.95-26.77 46.57-21.64 46.2-16.5 45.86-12.15 45.52-7.8 45.26-4.76 45-1.72 44.92-1.2L44.92-1.2Q44.92-0.6 44.51-0.3 44.1 0 43.57 0L43.57 0ZM102.97-39.98L102.97-39.98Q102.38-38.17 101.44-35.29 100.5-32.4 99.38-28.95 98.25-25.5 97.05-21.64 95.85-17.77 94.61-14.1 93.38-10.42 92.17-7.09 90.97-3.75 90-1.27L90-1.27Q89.7-0.67 88.76-0.34 87.83 0 85.8 0L85.8 0Q84.53 0 83.17-0.15 81.83-0.3 80.66-0.75 79.5-1.2 78.64-1.95 77.78-2.7 77.33-3.82L77.33-3.82Q76.2-7.65 75.19-12.34 74.17-17.02 73.2-21.9 72.22-26.77 71.29-31.46 70.35-36.15 69.38-39.98L69.38-39.98Q69.38-38.92 69.3-36.38 69.22-33.82 69.15-30.45 69.08-27.07 68.96-23.18 68.85-19.27 68.78-15.56 68.7-11.85 68.63-8.66 68.55-5.47 68.55-3.45L68.55-3.45Q68.55-1.2 68.29-0.6 68.03 0 67.35 0L67.35 0 63.23 0Q58.95 0 57.19-1.69 55.43-3.38 55.43-6.67L55.43-6.67Q55.43-7.57 55.54-9.71 55.65-11.85 55.88-14.77 56.1-17.7 56.36-21.19 56.63-24.68 56.93-28.27L56.93-28.27Q57.3-33.15 57.56-36.41 57.83-39.67 57.98-41.85 58.13-44.02 58.24-45.38 58.35-46.73 58.39-47.77 58.43-48.82 58.46-49.76 58.5-50.7 58.5-52.13L58.5-52.13Q58.5-52.73 58.95-52.99 59.4-53.25 59.77-53.25L59.77-53.25 70.28-53.25Q73.2-53.25 75.08-52.31 76.95-51.38 78.15-49.42 79.35-47.48 80.1-44.36 80.85-41.25 81.49-36.98 82.13-32.7 82.91-27.11 83.7-21.52 84.97-14.55L84.97-14.55Q86.17-19.2 87-22.27 87.83-25.35 88.39-27.41 88.95-29.47 89.33-30.82 89.7-32.17 90-33.34 90.3-34.5 90.67-35.85 91.05-37.2 91.58-39.23 92.1-41.25 92.89-44.29 93.67-47.32 94.88-51.98L94.88-51.98Q95.03-52.42 95.4-52.84 95.78-53.25 96.75-53.25L96.75-53.25 108.45-53.25Q110.85-53.25 112.31-52.76 113.78-52.27 114.6-51.38 115.42-50.48 115.72-49.16 116.03-47.85 116.03-46.13L116.03-46.13Q116.03-44.4 115.84-40.54 115.65-36.67 115.31-31.84 114.97-27 114.64-21.82 114.3-16.65 113.96-12.22 113.63-7.8 113.4-4.72 113.17-1.65 113.1-1.13L113.1-1.13Q113.03-0.53 112.8-0.26 112.57 0 111.9 0L111.9 0 107.78 0Q103.5 0 101.74-1.69 99.97-3.38 99.97-6.08L99.97-6.08Q99.97-6.9 100.16-9.07 100.35-11.25 100.65-14.17 100.95-17.1 101.33-20.59 101.7-24.07 102-27.52 102.3-30.97 102.56-34.24 102.83-37.5 102.97-39.98Z" transform="translate(-3.819999933242798, 53.25)"></path></g>       </g></g> </g></mask><defs v-gra="od"></defs></svg>